<?xml version="1.0" encoding="UTF-8"?>
<svg width="17px" height="15px" viewBox="0 0 17 15" version="1.1" xmlns="http://www.w3.org/2000/svg" xmlns:xlink="http://www.w3.org/1999/xlink">
    <!-- Generator: Sketch 53.1 (72631) - https://sketchapp.com -->
    <g id="Symbols" stroke="none" stroke-width="1" fill-rule="evenodd">
        <g id="Icons/ShoppingCart" fill-rule="nonzero">
            <path d="M16.9033377,4.96714723 C17.0187108,5.15786352 17.0316435,5.39679139 16.9376209,5.59988071 L12.7564814,14.6288074 C12.6513734,14.8557901 12.4304812,15 12.1882385,15 L8.80157129,15 L8.19842932,15 L4.81176143,15 C4.56951902,15 4.34862726,14.8557901 4.24351886,14.6288074 L0.0623789825,5.59988071 C-0.0316437611,5.39679141 -0.018710457,5.15786354 0.0966624045,4.96714723 C0.21203536,4.77600461 0.413835342,4.66038032 0.630621472,4.66038032 L3.44014232,4.66038032 C3.75043807,2.05504947 5.87829361,0.0289860468 8.46214974,0.00263979799 C8.47074652,0.00226650532 8.47880403,0 8.48747724,0 C8.49171146,0 8.49576617,0.000666592641 8.5000004,0.000666592641 C8.5042339,0.000666592641 8.50828862,0 8.51252284,0 C8.52119605,0 8.52925428,0.00226650532 8.53785034,0.00263979799 C11.1217065,0.0289860664 13.2495624,2.05504967 13.5598585,4.66038032 L16.3693795,4.66038032 C16.586165,4.66038032 16.7879646,4.77600463 16.9033377,4.96714723 Z M8.5000004,1.31135863 C6.59573087,1.31775865 5.01640995,2.76756774 4.71463351,4.66038032 L8.4702332,4.66038032 L8.52976688,4.66038032 L12.2853669,4.66038032 C11.9835912,2.76756774 10.4042692,1.31775865 8.5000004,1.31135863 Z M11.7918246,13.6893085 L15.3661265,5.97107253 L8.52976669,5.97107253 L8.47023301,5.97107253 L1.63387337,5.97107253 L5.20817617,13.6893085 L8.19842942,13.6893085 L8.80157138,13.6893085 L11.7918246,13.6893085 Z" id="cart"></path>
        </g>
    </g>
</svg>
