<?xml version="1.0" encoding="UTF-8"?>
<svg width="35px" height="35px" viewBox="0 0 35 35" version="1.1" xmlns="http://www.w3.org/2000/svg" xmlns:xlink="http://www.w3.org/1999/xlink">
    <!-- Generator: Sketch 53.2 (72643) - https://sketchapp.com -->
    <g id="Symbols" fill-rule="evenodd">
        <g id="InterfaceIcons/MobileNav_Close_X" fill-rule="nonzero">
            <g id="Close_X">
                <path d="M17.5,33 C26.0604136,33 33,26.0604136 33,17.5 C33,8.93958638 26.0604136,2 17.5,2 C8.93958638,2 2,8.93958638 2,17.5 C2,26.0604136 8.93958638,33 17.5,33 Z M17.5,35 C7.83501688,35 0,27.1649831 0,17.5 C0,7.83501688 7.83501688,0 17.5,0 C27.1649831,0 35,7.83501688 35,17.5 C35,27.1649831 27.1649831,35 17.5,35 Z M16.0857864,17.5 L10.4928932,11.9071068 C10.1023689,11.5165825 10.1023689,10.8834175 10.4928932,10.4928932 C10.8834175,10.1023689 11.5165825,10.1023689 11.9071068,10.4928932 L17.5,16.0857864 L23.0928932,10.4928932 C23.4834175,10.1023689 24.1165825,10.1023689 24.5071068,10.4928932 C24.8976311,10.8834175 24.8976311,11.5165825 24.5071068,11.9071068 L18.9142136,17.5 L24.5071068,23.0928932 C24.8976311,23.4834175 24.8976311,24.1165825 24.5071068,24.5071068 C24.1165825,24.8976311 23.4834175,24.8976311 23.0928932,24.5071068 L17.5,18.9142136 L11.9071068,24.5071068 C11.5165825,24.8976311 10.8834175,24.8976311 10.4928932,24.5071068 C10.1023689,24.1165825 10.1023689,23.4834175 10.4928932,23.0928932 L16.0857864,17.5 Z" id="Combined-Shape"></path>
            </g>
        </g>
    </g>
</svg>
