<?xml version="1.0" encoding="UTF-8"?>
<svg width="9px" height="18px" viewBox="0 0 9 18" version="1.1" xmlns="http://www.w3.org/2000/svg" xmlns:xlink="http://www.w3.org/1999/xlink">
    <!-- Generator: Sketch 53.1 (72631) - https://sketchapp.com -->
    <g id="Symbols" fill-rule="evenodd">
        <g id="Social/Facebook" transform="translate(-12.000000, -8.000000)">
            <g id="Facebook">
                <path d="M18.6248866,8 C17.4233312,8 16.4620868,8.35672948 15.739987,9.05868102 C15.0178872,9.74912517 14.6562541,10.7387618 14.6562541,12.0160834 L14.6562541,14.2600269 L12,14.2600269 L12,17.2979812 L14.6562541,17.2979812 L14.6562541,25.1 L17.8432923,25.1 L17.8432923,17.2979812 L20.4890473,17.2979812 L20.8950097,14.2600269 L17.8432923,14.2600269 L17.8432923,12.3152759 C17.8432923,11.8204576 17.9482826,11.4522207 18.15593,11.1990579 C18.364744,10.9574024 18.7672067,10.830821 19.3644848,10.830821 L21,10.830821 L21,8.12658143 C20.4365522,8.03452221 19.6456254,8 18.6248866,8 L18.6248866,8 L18.6248866,8 Z" id="fa-facebook"></path>
            </g>
        </g>
    </g>
</svg>
