<?xml version="1.0" encoding="UTF-8"?>
<svg width="20px" height="13px" viewBox="0 0 20 13" version="1.1" xmlns="http://www.w3.org/2000/svg" xmlns:xlink="http://www.w3.org/1999/xlink">
    <!-- Generator: Sketch 54.1 (76490) - https://sketchapp.com -->
    <g id="Icons/MobileFilter" stroke="none" stroke-width="1" fill="none" fill-rule="evenodd">
        <g id="Filter_Icon" fill="#4E4E4E" fill-rule="nonzero">
            <path d="M7,12.5 C6.44771525,12.5 6,12.0522847 6,11.5 C6,10.9477153 6.44771525,10.5 7,10.5 L18.8125,10.5 C19.3647847,10.5 19.8125,10.9477153 19.8125,11.5 C19.8125,12.0522847 19.3647847,12.5 18.8125,12.5 L7,12.5 Z M7,7.5 C6.44771525,7.5 6,7.05228475 6,6.5 C6,5.94771525 6.44771525,5.5 7,5.5 L18.8125,5.5 C19.3647847,5.5 19.8125,5.94771525 19.8125,6.5 C19.8125,7.05228475 19.3647847,7.5 18.8125,7.5 L7,7.5 Z M7,2.5 C6.44771525,2.5 6,2.05228475 6,1.5 C6,0.94771525 6.44771525,0.5 7,0.5 L18.8125,0.5 C19.3647847,0.5 19.8125,0.94771525 19.8125,1.5 C19.8125,2.05228475 19.3647847,2.5 18.8125,2.5 L7,2.5 Z M1,12.5 C0.44771525,12.5 4.4408921e-16,12.0522847 4.4408921e-16,11.5 C4.4408921e-16,10.9477153 0.44771525,10.5 1,10.5 L1.6875,10.5 C2.23978475,10.5 2.6875,10.9477153 2.6875,11.5 C2.6875,12.0522847 2.23978475,12.5 1.6875,12.5 L1,12.5 Z M1,7.5 C0.44771525,7.5 4.4408921e-16,7.05228475 4.4408921e-16,6.5 C4.4408921e-16,5.94771525 0.44771525,5.5 1,5.5 L1.6875,5.5 C2.23978475,5.5 2.6875,5.94771525 2.6875,6.5 C2.6875,7.05228475 2.23978475,7.5 1.6875,7.5 L1,7.5 Z M1,2.5 C0.44771525,2.5 4.4408921e-16,2.05228475 4.4408921e-16,1.5 C4.4408921e-16,0.94771525 0.44771525,0.5 1,0.5 L1.6875,0.5 C2.23978475,0.5 2.6875,0.94771525 2.6875,1.5 C2.6875,2.05228475 2.23978475,2.5 1.6875,2.5 L1,2.5 Z" id="Combined-Shape"></path>
        </g>
    </g>
</svg>
