<?xml version="1.0" encoding="UTF-8"?>
<svg width="18px" height="18px" viewBox="0 0 18 18" version="1.1" xmlns="http://www.w3.org/2000/svg" xmlns:xlink="http://www.w3.org/1999/xlink">
    <!-- Generator: Sketch 53.1 (72631) - https://sketchapp.com -->
    <g id="Symbols" fill-rule="evenodd">
        <g id="Social/instagram" transform="translate(-8.000000, -7.000000)" fill-rule="nonzero">
            <g id="Instagram_logo" transform="translate(8.485714, 7.542857)">
                <path d="M8.48234694,1.5290789 C10.7485714,1.5290789 11.0145918,1.53918294 11.9103061,1.57959913 C12.7386735,1.61664729 13.1865306,1.75473592 13.4862245,1.87261645 C13.8835714,2.02754515 14.1664286,2.20941797 14.4627551,2.50580331 C14.7590816,2.80218864 14.9442857,3.08510192 15.0958163,3.48252771 C15.2103061,3.78228106 15.3517347,4.23022709 15.3887755,5.05875882 C15.4291837,5.95465087 15.4392857,6.22072407 15.4392857,8.48739829 C15.4392857,10.7540725 15.4291837,11.0201457 15.3887755,11.9160378 C15.3517347,12.7445695 15.2136735,13.1925155 15.0958163,13.4922689 C14.9409184,13.8896947 14.7590816,14.1726079 14.4627551,14.4689933 C14.1664286,14.7653786 13.8835714,14.9506195 13.4862245,15.1021801 C13.1865306,15.2166927 12.7386735,15.3581493 11.9103061,15.3951975 C11.0145918,15.4356136 10.7485714,15.4457177 8.48234694,15.4457177 C6.21612245,15.4457177 5.95010204,15.4356136 5.05438776,15.3951975 C4.22602041,15.3581493 3.77816327,15.2200607 3.47846939,15.1021801 C3.08112245,14.9472514 2.79826531,14.7653786 2.50193878,14.4689933 C2.20561224,14.1726079 2.02040816,13.8896947 1.86887755,13.4922689 C1.75438776,13.1925155 1.61295918,12.7445695 1.57591837,11.9160378 C1.5355102,11.0201457 1.52540816,10.7540725 1.52540816,8.48739829 C1.52540816,6.22072407 1.5355102,5.95465087 1.57591837,5.05875882 C1.61295918,4.23022709 1.75102041,3.78228106 1.86887755,3.48252771 C2.02377551,3.08510192 2.20561224,2.80218864 2.50193878,2.50580331 C2.79826531,2.20941797 3.08112245,2.02417713 3.47846939,1.87261645 C3.77816327,1.75810393 4.22602041,1.61664729 5.05438776,1.57959913 C5.95010204,1.53581493 6.21612245,1.5290789 8.48234694,1.5290789 L8.48234694,1.5290789 Z M8.48234694,0 C6.17908163,0 5.8894898,0.0101040456 4.98367347,0.0505202279 C4.08122449,0.0909364103 3.465,0.235761064 2.92622449,0.444578006 C2.3672449,0.660130978 1.89581633,0.9531483 1.42438776,1.42467043 C0.952959184,1.89619256 0.663367347,2.3710827 0.444489796,2.92680521 C0.235714286,3.46568764 0.0909183673,4.08203442 0.0505102041,4.9880305 C0.0101020408,5.89065858 0,6.18030788 0,8.48403028 C0,10.7877527 0.0101020408,11.077402 0.0505102041,11.9833981 C0.0909183673,12.8860261 0.235714286,13.5023729 0.444489796,14.0446234 C0.66,14.6037139 0.952959184,15.075236 1.42438776,15.5467581 C1.89581633,16.0182803 2.37061224,16.3079296 2.92622449,16.5268506 C3.465,16.7356675 4.08122449,16.8804922 4.98704082,16.9209083 C5.89285714,16.9613245 6.17908163,16.9714286 8.48571429,16.9714286 C10.7923469,16.9714286 11.0785714,16.9613245 11.9843878,16.9209083 C12.8868367,16.8804922 13.5030612,16.7356675 14.0452041,16.5268506 C14.6041837,16.3112976 15.0756122,16.0182803 15.5470408,15.5467581 C16.0184694,15.075236 16.3080612,14.6003459 16.5269388,14.0446234 C16.7357143,13.5057409 16.8805102,12.8893942 16.9209184,11.9833981 C16.9613265,11.077402 16.9714286,10.7911207 16.9714286,8.48403028 C16.9714286,6.17693987 16.9613265,5.89065858 16.9209184,4.98466249 C16.8805102,4.08203442 16.7357143,3.46568764 16.5269388,2.92343719 C16.3114286,2.36434667 16.0184694,1.89282454 15.5470408,1.42130241 C15.0756122,0.949780285 14.6008163,0.660130978 14.0452041,0.441209991 C13.5064286,0.232393049 12.8902041,0.0875683951 11.9843878,0.0471522127 C11.0752041,0.0101040456 10.7856122,0 8.48234694,0 L8.48234694,0 Z" id="Shape"></path>
                <path d="M8.184,3.77142857 C5.74924266,3.77142857 3.77142857,5.74583263 3.77142857,8.184 C3.77142857,10.6221674 5.74924266,12.5965714 8.184,12.5965714 C10.6187573,12.5965714 12.5965714,10.6187573 12.5965714,8.184 C12.5965714,5.74924266 10.6187573,3.77142857 8.184,3.77142857 Z M8.184,11.0484204 C6.60174873,11.0484204 5.3195796,9.76625127 5.3195796,8.184 C5.3195796,6.60174873 6.60174873,5.3195796 8.184,5.3195796 C9.76625127,5.3195796 11.0484204,6.60174873 11.0484204,8.184 C11.0484204,9.76625127 9.76625127,11.0484204 8.184,11.0484204 Z" id="Shape"></path>
                <circle id="Oval" cx="13.2754286" cy="4.78971429" r="1.01828571"></circle>
            </g>
        </g>
    </g>
</svg>
