<?xml version="1.0" encoding="UTF-8"?>
<svg width="15px" height="15px" viewBox="0 0 15 15" version="1.1" xmlns="http://www.w3.org/2000/svg" xmlns:xlink="http://www.w3.org/1999/xlink">
    <!-- Generator: Sketch 53.1 (72631) - https://sketchapp.com -->
    <g id="Symbols" fill-rule="evenodd">
        <g id="Social/Linkin" transform="translate(-9.000000, -9.000000)">
            <g id="LinkedIn">
                <path d="M9.1848476,13.8741419 L9.1848476,24 L12.408196,24 L12.408196,13.8741419 L9.1848476,13.8741419 L9.1848476,13.8741419 Z M12.1150649,9.50343249 C11.7891206,9.17162471 11.3559866,9 10.8156628,9 C10.2753391,9 9.83782995,9.17162471 9.50204171,9.50343249 C9.16734724,9.83524027 9,10.2471396 9,10.7505721 C9,11.2540046 9.16187837,11.6659039 9.48782266,11.9977117 C9.81376695,12.3295195 10.2425259,12.5011442 10.7773808,12.5011442 L10.7959749,12.5011442 C11.3428613,12.5011442 11.7847455,12.3295195 12.11944,11.9977117 C12.4552282,11.6659039 12.6192942,11.2540046 12.6127315,10.7505721 C12.6061689,10.2471396 12.4399154,9.83524027 12.1150649,9.50343249 L12.1150649,9.50343249 Z M22.9838851,14.8009153 C22.3068397,14.0343249 21.4110398,13.6453089 20.2986729,13.6453089 C19.8885081,13.6453089 19.5155316,13.6910755 19.1797433,13.805492 C18.8450489,13.9084668 18.5617617,14.0572082 18.3309756,14.2402746 C18.0990958,14.4347826 17.915342,14.617849 17.7786204,14.778032 C17.6418988,14.9382151 17.5084585,15.1327231 17.3782995,15.3501144 L17.3979875,15.3501144 L17.3979875,13.8741419 L14.1855768,13.8741419 L14.194327,14.3661327 C14.2008896,14.6979405 14.2041709,15.7048055 14.2041709,17.3867277 C14.2041709,19.0800915 14.1976083,21.2883295 14.1855768,24 L17.3979875,24 L17.3979875,18.3478261 C17.3979875,18.0045767 17.434082,17.7299771 17.5051772,17.5240275 C17.6418988,17.180778 17.8486218,16.8832952 18.1253464,16.6544622 C18.4020709,16.4141876 18.7455155,16.2997712 19.1556803,16.2997712 C19.715692,16.2997712 20.1269506,16.5057208 20.3905498,16.9061785 C20.6552428,17.3066362 20.7864956,17.8672769 20.7864956,18.5881007 L20.7864956,24 L24,24 L24,18.1990847 C24,16.7116705 23.6609304,15.5789474 22.9838851,14.8009153 L22.9838851,14.8009153 Z" id="fa-linkedin"></path>
            </g>
        </g>
    </g>
</svg>
