<?xml version="1.0" encoding="UTF-8"?>
<svg width="53px" height="14px" viewBox="0 0 53 14" version="1.1" xmlns="http://www.w3.org/2000/svg" xmlns:xlink="http://www.w3.org/1999/xlink">
    <!-- Generator: Sketch 53.1 (72631) - https://sketchapp.com -->
    <g id="Symbols" fill-rule="evenodd">
        <g id="Payment_Logos-/-Paypal" fill-rule="nonzero">
            <g id="Paypal_Logo">
                <path d="M29.0608993,3.69755784 L27.085874,3.69755784 C26.8969953,3.69755784 26.7202853,3.78877407 26.6144709,3.94131648 L23.8897507,7.84970029 L22.7353158,4.09385888 C22.662833,3.85886112 22.4406228,3.69755784 22.1887846,3.69755784 L20.2476198,3.69755784 C20.013241,3.69755784 19.8481705,3.92224868 19.9238278,4.13817864 L22.0983133,10.3563431 L20.0529214,13.1675553 C19.8926126,13.3881234 20.0546144,13.6932082 20.3322713,13.6932082 L22.3051804,13.6932082 C22.4919428,13.6932082 22.6670655,13.6040534 22.7739381,13.454603 L29.3418365,4.22063399 C29.4989708,3.99955057 29.3370537,3.69755784 29.0608993,3.69755784 M15.857013,7.42294023 C15.6670762,8.51650437 14.7761192,9.25087238 13.6391437,9.25087238 C13.0693333,9.25087238 12.6127442,9.07204733 12.3196384,8.73398037 C12.0291779,8.39900549 11.9196601,7.92127978 12.0117186,7.38995809 C12.1884286,6.30567018 13.0941996,5.54811161 14.2137158,5.54811161 C14.7718866,5.54811161 15.2247721,5.72848269 15.5236978,6.06964172 C15.8247397,6.41337748 15.9432518,6.89367993 15.857013,7.42294023 M18.5954891,3.69750424 L16.6305161,3.69750424 C16.4622713,3.69750424 16.3188928,3.81654916 16.2924392,3.97888314 L16.2062005,4.51381225 L16.0691709,4.32004217 C15.643268,3.71863343 14.6946421,3.51713315 13.7476034,3.51713315 C11.5768215,3.51713315 9.7224245,5.11985911 9.36159747,7.36728287 C9.17377695,8.48867569 9.44042918,9.56007996 10.0933039,10.307847 C10.6927423,10.9948031 11.5482516,11.2808201 12.5677731,11.2808201 C14.3179429,11.2808201 15.2882608,10.1862253 15.2882608,10.1862253 L15.2004348,10.7180623 C15.1676324,10.920078 15.3279412,11.1030258 15.5385118,11.1030258 L17.3077282,11.1030258 C17.5886653,11.1030258 17.8272768,10.9046176 17.8711897,10.6345763 L18.9335661,4.08246768 C18.9663685,3.88045206 18.8055307,3.69750424 18.5954891,3.69750424 M6.80390313,3.7434731 C6.57957665,5.17819627 5.45476981,5.17819627 4.36646894,5.17819627 L3.74745483,5.17819627 L4.18182285,2.49942794 C4.20772621,2.3376093 4.35112585,2.21856439 4.51937071,2.21856439 L4.80348232,2.21856439 C5.54418296,2.21856439 6.243616,2.21856439 6.60444302,2.62929512 C6.82030436,2.87511515 6.8853802,3.23998009 6.80390313,3.7434731 M6.33038379,1.52056145e-12 L2.22690222,1.52056145e-12 C1.94596505,1.52056145e-12 1.70735363,0.198923543 1.66344066,0.46896483 L0.00427122002,10.7181654 C-0.028531237,10.920181 0.131777545,11.1031288 0.341819085,11.1031288 L2.30150136,11.1031288 C2.58190946,11.1031288 2.82052088,10.9042053 2.86443385,10.6346794 L3.31255774,7.86933291 C3.35594163,7.59929162 3.59508212,7.40036808 3.87549023,7.40036808 L5.17383264,7.40036808 C7.87686092,7.40036808 9.43709391,6.12643285 9.84447927,3.60072227 C10.0280672,2.49685121 9.85188627,1.6290086 9.32122717,1.02141571 C8.73766088,0.353527333 7.70332534,1.52129381e-12 6.33038379,1.52129381e-12" id="path14519"></path>
                <path d="M49.6572508,0.281638632 L47.973215,10.7184251 C47.9404125,10.9204408 48.1007213,11.1033886 48.3107628,11.1033886 L50.004851,11.1033886 C50.2852591,11.1033886 50.5243996,10.904465 50.5677835,10.6344238 L52.2285402,0.385223171 C52.2613426,0.183207552 52.1010338,0.000259734366 51.8904632,0.000259734366 L49.9953277,0.000259734366 C49.8265538,0.000259734366 49.6831753,0.119304653 49.6572508,0.281638632 M44.6028154,7.42294023 C44.4128786,8.51650437 43.5219215,9.25087238 42.3849461,9.25087238 C41.8151356,9.25087238 41.3585466,9.07204733 41.0654408,8.73398037 C40.7744512,8.39900549 40.6654624,7.92127978 40.7575209,7.38995809 C40.9342309,6.30567018 41.840002,5.54811161 42.9595181,5.54811161 C43.517689,5.54811161 43.9705745,5.72848269 44.2695001,6.06964172 C44.570542,6.41337748 44.6890541,6.89367993 44.6028154,7.42294023 M47.3412915,3.69750424 L45.3763185,3.69750424 C45.2080737,3.69750424 45.0646952,3.81654916 45.0382416,3.97888314 L44.9520029,4.51381225 L44.8144442,4.32004217 C44.3890704,3.71863343 43.4404445,3.51713315 42.4934058,3.51713315 C40.3226238,3.51713315 38.4682269,5.11985911 38.1073998,7.36728287 C37.9195793,8.48867569 38.1862316,9.56007996 38.8391063,10.307847 C39.4385447,10.9948031 40.294054,11.2808201 41.3135755,11.2808201 C43.0637453,11.2808201 44.0340631,10.1862253 44.0340631,10.1862253 L43.9462372,10.7180623 C43.9134347,10.920078 44.0737435,11.1030258 44.2843141,11.1030258 L46.0535305,11.1030258 C46.3344677,11.1030258 46.5730791,10.9046176 46.6169921,10.6345763 L47.6793684,4.08246768 C47.7121709,3.88045206 47.551333,3.69750424 47.3412915,3.69750424 M35.5496547,3.7434731 C35.3253282,5.17819627 34.2005214,5.17819627 33.1122205,5.17819627 L32.4932064,5.17819627 L32.9275744,2.49942794 C32.9535201,2.3376093 33.0968774,2.21856439 33.2651223,2.21856439 L33.5492339,2.21856439 C34.2899345,2.21856439 34.9893676,2.21856439 35.3501946,2.62929512 C35.5660559,2.87511515 35.6311318,3.23998009 35.5496547,3.7434731 M35.0761354,-1.1688428e-12 L30.9726538,-1.1688428e-12 C30.6917166,-1.1688428e-12 30.4531052,0.198923543 30.4091922,0.46896483 L28.7500228,10.7181654 C28.7172203,10.920181 28.8780582,11.1031288 29.0875707,11.1031288 L31.1932768,11.1031288 C31.3895624,11.1031288 31.5567492,10.9639854 31.5874353,10.7753688 L32.0583093,7.86933291 C32.1016932,7.59929162 32.3408337,7.40036808 32.6212418,7.40036808 L33.9195842,7.40036808 C36.6226125,7.40036808 38.1828455,6.12643285 38.5902308,3.60072227 C38.7738188,2.49685121 38.5976379,1.6290086 38.0669787,1.02141571 C37.4834125,0.353527333 36.4490769,-1.16811045e-12 35.0761354,-1.16811045e-12" id="path14523"></path>
            </g>
        </g>
    </g>
</svg>
