<?xml version="1.0" encoding="UTF-8"?>
<svg width="83px" height="14px" viewBox="0 0 83 14" version="1.1" xmlns="http://www.w3.org/2000/svg" xmlns:xlink="http://www.w3.org/1999/xlink">
    <!-- Generator: Sketch 53.1 (72631) - https://sketchapp.com -->
    <g id="Symbols" fill-rule="evenodd">
        <g id="Payment_Logos-/-MC" fill-rule="nonzero">
            <g id="MC">
                <path d="M82.3615385,10.2117647 L82.3615385,10.3764706 L82.4413462,10.3764706 C82.4413462,10.3764706 82.5211538,10.3764706 82.5211538,10.3764706 C82.5211538,10.3764706 82.5211538,10.3764706 82.5211538,10.2941176 C82.5211538,10.2941176 82.5211538,10.2941176 82.5211538,10.2117647 C82.5211538,10.2117647 82.5211538,10.2117647 82.4413462,10.2117647 L82.3615385,10.2117647 Z M82.5211538,10.1294118 C82.6009615,10.1294118 82.6009615,10.1294118 82.6807692,10.1294118 C82.6807692,10.1294118 82.7605769,10.2117647 82.7605769,10.2117647 C82.7605769,10.2117647 82.7605769,10.2941176 82.7605769,10.2941176 C82.7605769,10.2941176 82.6807692,10.2941176 82.6807692,10.3764706 L82.8403846,10.5411765 L82.7605769,10.5411765 L82.6009615,10.3764706 L82.5211538,10.3764706 L82.5211538,10.5411765 L82.4413462,10.5411765 L82.4413462,10.0470588 L82.5211538,10.0470588 L82.5211538,10.1294118 Z M82.4413462,10.7058824 C82.5211538,10.7058824 82.5211538,10.7058824 82.6009615,10.7058824 C82.6807692,10.7058824 82.6807692,10.6235294 82.7605769,10.6235294 C82.7605769,10.6235294 82.8403846,10.5411765 82.8403846,10.4588235 C82.8403846,10.3764706 82.8403846,10.3764706 82.8403846,10.2941176 C82.8403846,10.2117647 82.8403846,10.2117647 82.8403846,10.1294118 C82.8403846,10.0470588 82.7605769,10.0470588 82.7605769,9.96470588 C82.7605769,9.88235294 82.6807692,9.88235294 82.6009615,9.88235294 C82.5211538,9.88235294 82.5211538,9.88235294 82.4413462,9.88235294 C82.3615385,9.88235294 82.3615385,9.88235294 82.2817308,9.88235294 C82.2019231,9.88235294 82.2019231,9.96470588 82.1221154,9.96470588 C82.0423077,9.96470588 82.0423077,10.0470588 82.0423077,10.1294118 C82.0423077,10.2117647 82.0423077,10.2117647 82.0423077,10.2941176 C82.0423077,10.3764706 82.0423077,10.3764706 82.0423077,10.4588235 C82.0423077,10.5411765 82.1221154,10.5411765 82.1221154,10.6235294 C82.1221154,10.6235294 82.2019231,10.7058824 82.2817308,10.7058824 C82.3615385,10.7058824 82.4413462,10.7058824 82.4413462,10.7058824 L82.4413462,10.7058824 Z M82.4413462,9.8 C82.5211538,9.8 82.6009615,9.8 82.6009615,9.8 C82.6807692,9.8 82.6807692,9.88235294 82.7605769,9.88235294 C82.8403846,9.96470588 82.8403846,9.96470588 82.8403846,10.0470588 C82.8403846,10.1294118 82.8403846,10.2117647 82.8403846,10.2117647 C82.8403846,10.2117647 82.8403846,10.3764706 82.8403846,10.3764706 C82.8403846,10.4588235 82.7605769,10.4588235 82.7605769,10.5411765 C82.6807692,10.6235294 82.6807692,10.6235294 82.6009615,10.6235294 C82.5211538,10.6235294 82.4413462,10.6235294 82.4413462,10.6235294 C82.3615385,10.6235294 82.2817308,10.6235294 82.2817308,10.6235294 C82.2019231,10.6235294 82.2019231,10.5411765 82.1221154,10.5411765 C82.0423077,10.4588235 82.0423077,10.4588235 82.0423077,10.3764706 C82.0423077,10.2941176 82.0423077,10.2117647 82.0423077,10.2117647 C82.0423077,10.2117647 82.0423077,10.0470588 82.0423077,10.0470588 C82.0423077,9.96470588 82.1221154,9.96470588 82.1221154,9.88235294 C82.2019231,9.8 82.2019231,9.8 82.2817308,9.8 C82.3615385,9.8 82.4413462,9.8 82.4413462,9.8 L82.4413462,9.8 Z M36.0730769,7.98823529 C36.0730769,7.08235294 36.6317308,6.34117647 37.5894231,6.34117647 C38.4673077,6.34117647 39.1057692,7.08235294 39.1057692,7.98823529 C39.1057692,8.89411765 38.4673077,9.63529412 37.5894231,9.63529412 C36.6317308,9.63529412 36.0730769,8.89411765 36.0730769,7.98823529 L36.0730769,7.98823529 Z M40.0634615,7.98823529 L40.0634615,5.43529412 L38.9461538,5.43529412 L38.9461538,6.09411765 C38.6269231,5.6 38.0682692,5.35294118 37.35,5.35294118 C35.9932692,5.35294118 34.8759615,6.50588235 34.8759615,8.07058824 C34.8759615,9.63529412 35.9932692,10.7882353 37.35,10.7882353 C38.0682692,10.7882353 38.5471154,10.4588235 38.9461538,10.0470588 L38.9461538,10.7058824 L40.0634615,10.7058824 L40.0634615,7.98823529 Z M76.6153846,7.98823529 C76.6153846,7.08235294 77.1740385,6.34117647 78.1317308,6.34117647 C79.0096154,6.34117647 79.6480769,7.08235294 79.6480769,7.98823529 C79.6480769,8.89411765 79.0096154,9.63529412 78.1317308,9.63529412 C77.2538462,9.63529412 76.6153846,8.89411765 76.6153846,7.98823529 L76.6153846,7.98823529 Z M80.6855769,7.98823529 L80.6855769,3.37647059 L79.5682692,3.37647059 L79.5682692,6.09411765 C79.2490385,5.6 78.6903846,5.35294118 77.9721154,5.35294118 C76.6153846,5.35294118 75.4980769,6.50588235 75.4980769,8.07058824 C75.4980769,9.63529412 76.6153846,10.7882353 77.9721154,10.7882353 C78.6903846,10.7882353 79.1692308,10.4588235 79.5682692,10.0470588 L79.5682692,10.7058824 L80.6855769,10.7058824 L80.6855769,7.98823529 Z M53.4711538,6.25882353 C54.1894231,6.25882353 54.5884615,6.67058824 54.7480769,7.49411765 L52.1942308,7.49411765 C52.2740385,6.83529412 52.7528846,6.25882353 53.4711538,6.25882353 L53.4711538,6.25882353 Z M53.5509615,5.27058824 C52.1144231,5.27058824 51.0769231,6.34117647 51.0769231,7.98823529 C51.0769231,9.63529412 52.1144231,10.7058824 53.6307692,10.7058824 C54.3490385,10.7058824 55.0673077,10.5411765 55.7057692,9.96470588 L55.1471154,9.14117647 C54.7480769,9.47058824 54.1894231,9.71764706 53.7105769,9.71764706 C52.9923077,9.71764706 52.3538462,9.38823529 52.1942308,8.48235294 L55.8653846,8.48235294 C55.8653846,8.31764706 55.8653846,8.23529412 55.8653846,8.07058824 C55.8653846,6.42352941 54.9076923,5.27058824 53.5509615,5.27058824 L53.5509615,5.27058824 Z M66.5596154,7.98823529 C66.5596154,7.08235294 67.1182692,6.34117647 68.0759615,6.34117647 C68.9538462,6.34117647 69.5923077,7.08235294 69.5923077,7.98823529 C69.5923077,8.89411765 68.9538462,9.63529412 68.0759615,9.63529412 C67.1980769,9.63529412 66.5596154,8.89411765 66.5596154,7.98823529 L66.5596154,7.98823529 Z M70.6298077,7.98823529 L70.6298077,5.43529412 L69.5125,5.43529412 L69.5125,6.09411765 C69.1932692,5.6 68.6346154,5.35294118 67.9163462,5.35294118 C66.5596154,5.35294118 65.4423077,6.50588235 65.4423077,8.07058824 C65.4423077,9.63529412 66.5596154,10.7882353 67.9163462,10.7882353 C68.6346154,10.7882353 69.1134615,10.4588235 69.5125,10.0470588 L69.5125,10.7058824 L70.6298077,10.7058824 L70.6298077,7.98823529 Z M60.4942308,7.98823529 C60.4942308,9.55294118 61.5317308,10.7058824 63.1278846,10.7058824 C63.8461538,10.7058824 64.4048077,10.5411765 64.8836538,10.1294118 L64.325,9.22352941 C63.9259615,9.55294118 63.5269231,9.71764706 63.0480769,9.71764706 C62.1701923,9.71764706 61.5317308,9.05882353 61.5317308,8.07058824 C61.5317308,7.08235294 62.1701923,6.42352941 63.0480769,6.42352941 C63.5269231,6.42352941 63.9259615,6.58823529 64.325,6.91764706 L64.8836538,6.01176471 C64.325,5.6 63.8461538,5.43529412 63.1278846,5.43529412 C61.5317308,5.27058824 60.4942308,6.42352941 60.4942308,7.98823529 L60.4942308,7.98823529 Z M74.4605769,5.27058824 C73.8221154,5.27058824 73.4230769,5.6 73.1836538,6.01176471 L73.1836538,5.43529412 L72.1461538,5.43529412 L72.1461538,10.5411765 L73.2634615,10.5411765 L73.2634615,7.65882353 C73.2634615,6.83529412 73.5826923,6.34117647 74.3009615,6.34117647 C74.5403846,6.34117647 74.7798077,6.34117647 74.9394231,6.50588235 L75.2586538,5.43529412 C74.9394231,5.35294118 74.6201923,5.27058824 74.4605769,5.27058824 L74.4605769,5.27058824 Z M45.4105769,5.84705882 C44.8519231,5.51764706 44.1336538,5.27058824 43.4153846,5.27058824 C42.1384615,5.27058824 41.3403846,5.92941176 41.3403846,6.91764706 C41.3403846,7.74117647 41.9788462,8.23529412 43.0961538,8.4 L43.575,8.48235294 C44.1336538,8.56470588 44.4528846,8.72941176 44.4528846,9.05882353 C44.4528846,9.47058824 44.0538462,9.71764706 43.3355769,9.71764706 C42.6173077,9.71764706 42.0586538,9.47058824 41.6596154,9.14117647 L41.1807692,10.0470588 C41.7394231,10.4588235 42.5375,10.7058824 43.3355769,10.7058824 C44.7721154,10.7058824 45.5701923,10.0470588 45.5701923,9.05882353 C45.5701923,8.15294118 44.9317308,7.65882353 43.8144231,7.49411765 L43.2557692,7.41176471 C42.7769231,7.32941176 42.3778846,7.24705882 42.3778846,6.91764706 C42.3778846,6.50588235 42.6971154,6.34117647 43.3355769,6.34117647 C43.9740385,6.34117647 44.6125,6.58823529 44.8519231,6.75294118 L45.4105769,5.84705882 Z M59.3769231,5.27058824 C58.7384615,5.27058824 58.3394231,5.6 58.1,6.01176471 L58.1,5.43529412 L57.0625,5.43529412 L57.0625,10.5411765 L58.1798077,10.5411765 L58.1798077,7.65882353 C58.1798077,6.83529412 58.4990385,6.34117647 59.2173077,6.34117647 C59.4567308,6.34117647 59.6961538,6.34117647 59.8557692,6.50588235 L60.175,5.43529412 C59.9355769,5.35294118 59.6163462,5.27058824 59.3769231,5.27058824 L59.3769231,5.27058824 Z M50.1192308,5.43529412 L48.3634615,5.43529412 L48.3634615,3.87058824 L47.2461538,3.87058824 L47.2461538,5.43529412 L46.2884615,5.43529412 L46.2884615,6.42352941 L47.3259615,6.42352941 L47.3259615,8.72941176 C47.3259615,9.88235294 47.8048077,10.6235294 49.0817308,10.6235294 C49.5605769,10.6235294 50.1192308,10.4588235 50.4384615,10.2117647 L50.1192308,9.22352941 C49.8,9.38823529 49.4807692,9.55294118 49.1615385,9.55294118 C48.6028846,9.55294118 48.4432692,9.22352941 48.4432692,8.72941176 L48.4432692,6.42352941 L50.1990385,6.42352941 L50.1192308,5.43529412 Z M33.9980769,10.5411765 L33.9980769,7.32941176 C33.9980769,6.09411765 33.2798077,5.27058824 32.0028846,5.27058824 C31.3644231,5.27058824 30.7259615,5.43529412 30.2471154,6.17647059 C29.9278846,5.6 29.3692308,5.27058824 28.5711538,5.27058824 C28.0125,5.27058824 27.5336538,5.43529412 27.1346154,6.01176471 L27.1346154,5.43529412 L26.0173077,5.43529412 L26.0173077,10.5411765 L27.1346154,10.5411765 L27.1346154,7.74117647 C27.1346154,6.83529412 27.6134615,6.34117647 28.3317308,6.34117647 C29.05,6.34117647 29.4490385,6.83529412 29.4490385,7.65882353 L29.4490385,10.5411765 L30.5663462,10.5411765 L30.5663462,7.74117647 C30.5663462,6.83529412 31.0451923,6.34117647 31.7634615,6.34117647 C32.4817308,6.34117647 32.8807692,6.83529412 32.8807692,7.65882353 L32.8807692,10.5411765 L33.9980769,10.5411765 Z M10.9336538,10.8705882 C9.89615385,9.96470588 9.17788462,8.56470588 9.17788462,7 C9.17788462,5.43529412 9.89615385,4.03529412 10.9336538,3.12941176 C12.0509615,4.03529412 12.7692308,5.35294118 12.7692308,7 C12.7692308,8.56470588 12.0509615,9.96470588 10.9336538,10.8705882 Z M8.53942308,7 C8.53942308,9.05882353 9.49711538,10.9529412 10.9336538,12.1058824 C9.89615385,13.0117647 8.45961538,13.5058824 7.02307692,13.5058824 C3.51153846,13.5058824 0.718269231,10.5411765 0.718269231,7 C0.718269231,3.45882353 3.59134615,0.494117647 7.02307692,0.494117647 C8.53942308,0.494117647 9.89615385,0.988235294 10.9336538,1.89411765 C9.49711538,3.04705882 8.53942308,4.85882353 8.53942308,7 L8.53942308,7 Z M21.2288462,7 C21.2288462,3.37647059 18.3557692,0.494117647 14.9240385,0.494117647 C13.4076923,0.494117647 12.0509615,0.988235294 11.0134615,1.89411765 C12.45,3.12941176 13.4076923,4.94117647 13.4076923,7 C13.4076923,9.05882353 12.45,10.9529412 11.0134615,12.1058824 C12.1307692,13.0117647 13.4875,13.5058824 14.9240385,13.5058824 C18.3557692,13.5058824 21.2288462,10.6235294 21.2288462,7 L21.2288462,7 Z" id="MC_Logo"></path>
            </g>
        </g>
    </g>
</svg>
