<?xml version="1.0" encoding="UTF-8"?>
<svg width="48px" height="8px" viewBox="0 0 48 8" version="1.1" xmlns="http://www.w3.org/2000/svg" xmlns:xlink="http://www.w3.org/1999/xlink">
    <!-- Generator: Sketch 53.1 (72631) - https://sketchapp.com -->
    <g id="Symbols" fill-rule="evenodd">
        <g id="Payment_Logos-/-Discover" transform="translate(-3.000000, 0.000000)" fill-rule="nonzero">
            <g id="Discover_Card_logo" transform="translate(3.000000, 0.000000)">
                <path d="M2.14147056,0.235294118 L0,0.235294118 L0,7.76470588 L2.14147056,7.76470588 C3.33117643,7.76470588 4.12431368,7.45098039 4.91745092,6.90196078 C5.78990189,6.19607843 6.26578424,5.09803922 6.26578424,4 C6.26578424,1.7254902 4.60019602,0.235294118 2.14147056,0.235294118 Z M3.8863725,5.80392157 C3.48980388,6.2745098 2.85529408,6.43137255 1.90352939,6.43137255 L1.50696077,6.43137255 L1.50696077,1.49019608 L1.90352939,1.49019608 C2.85529408,1.49019608 3.48980388,1.64705882 3.96568623,2.11764706 C4.5208823,2.58823529 4.8381372,3.29411765 4.8381372,4 C4.75882347,4.70588235 4.44156858,5.41176471 3.8863725,5.80392157 Z M6.97960776,0.235294118 L8.48656853,0.235294118 L8.48656853,7.76470588 L6.97960776,7.76470588 L6.97960776,0.235294118 Z M12.0556861,3.1372549 C11.1832352,2.82352941 10.945294,2.58823529 10.945294,2.19607843 C10.945294,1.7254902 11.4211763,1.33333333 12.0556861,1.33333333 C12.5315685,1.33333333 12.8488234,1.49019608 13.245392,1.96078431 L14.0385292,0.941176471 C13.4040194,0.392156863 12.6108822,0.0784313725 11.817745,0.0784313725 C10.4694116,0.0784313725 9.43833322,1.01960784 9.43833322,2.2745098 C9.43833322,3.29411765 9.91421557,3.84313725 11.2625489,4.31372549 C11.817745,4.47058824 12.1349999,4.62745098 12.2936273,4.70588235 C12.6108822,4.8627451 12.7695097,5.17647059 12.7695097,5.49019608 C12.7695097,6.11764706 12.2936273,6.50980392 11.6591175,6.50980392 C10.945294,6.50980392 10.3900979,6.19607843 9.99352929,5.49019608 L9.0417646,6.35294118 C9.75558812,7.29411765 10.5487254,7.76470588 11.6591175,7.76470588 C13.245392,7.76470588 14.2764704,6.74509804 14.2764704,5.25490196 C14.2764704,4.23529412 13.8005881,3.68627451 12.0556861,3.1372549 Z M14.673039,4 C14.673039,6.19607843 16.417941,7.92156863 18.718039,7.92156863 C19.3525488,7.92156863 19.9077449,7.84313725 20.5422547,7.45098039 L20.5422547,5.7254902 C19.9077449,6.35294118 19.4318625,6.58823529 18.7973527,6.58823529 C17.290392,6.58823529 16.2593135,5.49019608 16.2593135,4 C16.2593135,2.50980392 17.3697057,1.41176471 18.7973527,1.41176471 C19.5111762,1.41176471 20.0663723,1.64705882 20.6215684,2.2745098 L20.6215684,0.470588235 C19.9077449,0.156862745 19.4318625,0 18.7973527,0 C16.4972547,-4.35381578e-17 14.673039,1.80392157 14.673039,4 Z M32.3599996,5.25490196 L30.2978428,0.235294118 L28.7115683,0.235294118 L31.963431,7.92156863 L32.7565682,7.92156863 L36.0084309,0.235294118 L34.4221565,0.235294118 L32.3599996,5.25490196 Z M36.6429407,7.68627451 L40.8465681,7.68627451 L40.8465681,6.43137255 L38.1499015,6.43137255 L38.1499015,4.39215686 L40.7672544,4.39215686 L40.7672544,3.1372549 L38.1499015,3.1372549 L38.1499015,1.49019608 L40.8465681,1.49019608 L40.8465681,0.235294118 L36.6429407,0.235294118 L36.6429407,7.68627451 Z M46.7157838,2.43137255 C46.7157838,1.01960784 45.7640191,0.235294118 44.0191171,0.235294118 L41.7983328,0.235294118 L41.7983328,7.76470588 L43.3052936,7.76470588 L43.3052936,4.70588235 L43.4639211,4.70588235 L45.5260779,7.76470588 L47.3502936,7.76470588 L44.9708818,4.54901961 C46.1605877,4.31372549 46.7157838,3.60784314 46.7157838,2.43137255 Z M43.781176,3.68627451 L43.3846073,3.68627451 L43.3846073,1.41176471 L43.8604897,1.41176471 C44.7329406,1.41176471 45.2881367,1.80392157 45.2881367,2.50980392 C45.208823,3.29411765 44.7329406,3.68627451 43.781176,3.68627451 Z M47.6675485,0.470588235 C47.6675485,0.31372549 47.5882347,0.31372549 47.4296073,0.31372549 L47.1916661,0.31372549 L47.1916661,1.01960784 L47.3502936,1.01960784 L47.3502936,0.705882353 L47.508921,0.941176471 L47.7468622,0.941176471 L47.508921,0.705882353 C47.6675485,0.62745098 47.6675485,0.62745098 47.6675485,0.470588235 Z M47.4296073,0.62745098 L47.4296073,0.62745098 L47.4296073,0.470588235 L47.4296073,0.470588235 C47.508921,0.470588235 47.508921,0.470588235 47.508921,0.549019608 C47.508921,0.549019608 47.508921,0.62745098 47.4296073,0.62745098 Z M47.4296073,0 C47.1123524,0 46.8744112,0.235294118 46.8744112,0.549019608 C46.8744112,0.862745098 47.1123524,1.09803922 47.4296073,1.09803922 C47.7468622,1.09803922 47.9848034,0.862745098 47.9848034,0.549019608 C48.0641171,0.31372549 47.8261759,0 47.4296073,0 Z M47.4296073,1.09803922 C47.1916661,1.09803922 46.9537249,0.862745098 46.9537249,0.62745098 C46.9537249,0.392156863 47.1123524,0.156862745 47.4296073,0.156862745 C47.6675485,0.156862745 47.9054896,0.392156863 47.9054896,0.62745098 C47.9054896,0.862745098 47.7468622,1.09803922 47.4296073,1.09803922 Z M25.063137,0 C27.2839212,0 29.1081369,1.80392157 29.1081369,4 C29.1081369,6.19607843 27.2839212,8 25.063137,8 C22.8423527,8 21.018137,6.19607843 21.018137,4 C21.018137,1.80392157 22.8423527,0 25.063137,0 Z" id="Discover_Icon"></path>
            </g>
        </g>
    </g>
</svg>
