<?xml version="1.0" encoding="UTF-8"?>
<svg width="33px" height="11px" viewBox="0 0 33 11" version="1.1" xmlns="http://www.w3.org/2000/svg" xmlns:xlink="http://www.w3.org/1999/xlink">
    <!-- Generator: Sketch 53.1 (72631) - https://sketchapp.com -->
    <g id="Symbols" fill-rule="evenodd">
        <g id="Payment_Logos-/-Visa" transform="translate(-2.000000, 0.000000)" fill-rule="nonzero">
            <g id="Visa_Logo">
                <g id="g10267" transform="translate(18.500000, 6.000000) scale(-1, 1) rotate(-180.000000) translate(-18.500000, -6.000000) ">
                    <g id="Group" transform="translate(2.000000, 1.000000)">
                        <path d="M17.009865,7.44625874 C16.9769002,5.92316036 18.3284592,5.07699459 19.3503697,4.56929513 C20.3722802,4.06159567 20.7348936,3.72312937 20.7348936,3.24927654 C20.7348936,2.5384973 19.9107722,2.23387762 19.1525806,2.20003099 C17.8010215,2.16618436 17.0428299,2.57234393 16.4164976,2.8769636 L15.9220248,0.57539272 C16.548357,0.270773045 17.702127,0.0338466306 18.8888617,0 C21.6908744,0 23.5039414,1.42155849 23.5369062,3.62158948 C23.5369062,6.39701319 19.7789128,6.56624634 19.8118777,7.81857167 C19.8118777,8.19088461 20.1744911,8.59704418 20.9326827,8.69858407 C21.328261,8.76627733 22.3501715,8.80012396 23.5698711,8.22473124 L24.0313791,10.4586089 C23.4050468,10.6955353 22.5809254,10.9324617 21.5260501,10.9324617 C18.8888617,10.9324617 17.0428299,9.5109032 17.009865,7.44625874 M28.5145993,10.7632285 C28.0201265,10.7632285 27.5586185,10.4586089 27.3937942,9.98475603 L23.372082,0.203079784 L26.1740946,0.203079784 L26.7344971,1.79387142 L30.162842,1.79387142 L30.4924906,0.203079784 L32.9648547,0.203079784 L30.8221391,10.7632285 L28.5145993,10.7632285 M28.9101775,7.88626493 L29.7013341,3.92620915 L27.4926888,3.92620915 L28.9101775,7.88626493 M13.6474498,10.7632285 L11.4388046,0.203079784 L14.1089578,0.203079784 L16.3176031,10.7632285 L13.6474498,10.7632285 M9.69166727,10.7632285 L6.92261948,3.58774285 L5.80181442,9.68013636 C5.669955,10.357069 5.14251733,10.7632285 4.5821148,10.7632285 L0.0659297093,10.7632285 L0,10.4586089 C0.923015931,10.2555291 1.97789128,9.91706277 2.63718837,9.54474983 C3.03276663,9.34167005 3.13166119,9.13859027 3.26352061,8.63089081 L5.37327131,0.203079784 L8.17528396,0.203079784 L12.4936799,10.7632285 L9.69166727,10.7632285" id="SVGID_1_"></path>
                    </g>
                </g>
            </g>
        </g>
    </g>
</svg>
