<?xml version="1.0" encoding="UTF-8"?>
<svg width="48px" height="19px" viewBox="0 0 48 19" version="1.1" xmlns="http://www.w3.org/2000/svg" xmlns:xlink="http://www.w3.org/1999/xlink">
    <!-- Generator: Sketch 53.1 (72631) - https://sketchapp.com -->
    <g id="Symbols" fill-rule="evenodd">
        <g id="Payment_Logos-/-AM">
            <g id="American_Express_logo_bw">
                <g id="Group">
                    <path d="M40.7317639,0.0059134765 L40.7317639,1.31870526 L39.85974,0.0059134765 L36.6839233,0.0059134765 L36.6839233,2.30625584 L35.6999504,0.023653906 L30.1732045,0.0059134765 C28.7001912,0.0059134765 27.8045991,0.84562714 27.8045991,0.84562714 L27.8045991,0.0059134765 L10.7824574,0.0059134765 L10.2050362,1.67942733 L9.60993879,0.0059134765 L5.81545652,0.0059134765 L5.81545652,2.31808279 L4.81380748,0.0059134765 L1.76761596,0.0059134765 L0.00589205321,4.13352007 L0.00589205321,7.42141301 L2.18595174,7.42141301 L2.65142395,6.25054466 L3.90053923,6.25054466 L4.37190349,7.42141301 L22.0951996,7.42141301 L22.0951996,6.25054466 L23.0438201,7.42141301 L27.8104912,7.42141301 L27.8104912,6.59943978 C27.8104912,6.59943978 28.6177025,7.42141301 29.8844939,7.42141301 L33.0485265,7.42141301 L33.5081066,6.25054466 L34.763114,6.25054466 L35.2344782,7.42141301 L39.9009844,7.42141301 L39.9009844,6.10862123 L40.7376559,7.42141301 L43.9429329,7.42141301 L43.9429329,0.0059134765 L40.7317639,0.0059134765 Z M4.98467702,6.47525677 L4.54866508,5.36352319 L1.99740604,5.36352319 L1.55550205,6.47525677 L0.00589205321,6.47525677 L2.38628155,0.922502334 L2.38628155,0.922502334 L4.18924984,0.922502334 L6.56963933,6.47525677 L4.98467702,6.47525677 Z M13.6518873,6.47525677 L12.2672548,6.47525677 L12.2672548,2.38313103 L10.8001335,6.47525677 L9.58637058,6.47525677 L8.11335728,2.38313103 L8.11335728,6.47525677 L6.72872477,6.47525677 L6.72872477,0.922502334 L8.93235267,0.928415811 L10.2109282,4.50606909 L11.4600435,0.916588858 L13.6459952,0.916588858 L13.6459952,6.47525677 L13.6518873,6.47525677 Z M19.1138206,2.1643324 L15.9969245,2.1643324 L15.9969245,3.11640212 L19.0372239,3.11640212 L19.0372239,4.28727046 L15.9969245,4.28727046 L15.9969245,5.27482104 L19.1138206,5.27482104 L19.1138206,6.48117025 L14.6005079,6.48117025 L14.6005079,0.928415811 L19.1138206,0.928415811 L19.1138206,2.1643324 Z M23.5387526,6.47525677 L21.8830856,4.50015562 L21.2997724,4.50015562 L21.2997724,6.47525677 L19.9151399,6.47525677 L19.9151399,0.922502334 L19.9151399,0.922502334 L22.9907916,0.922502334 C24.0101168,0.922502334 24.9233851,1.55524432 24.9233851,2.72611267 C24.9233851,3.7254902 24.1515261,4.37005913 23.4032354,4.4291939 L25.2238798,6.47525677 L23.5387526,6.47525677 L23.5387526,6.47525677 Z M26.903115,6.47525677 L25.4890222,6.47525677 L25.4890222,0.922502334 L26.903115,0.922502334 L26.903115,6.47525677 Z M30.2498012,6.47525677 L29.9434144,6.47525677 C28.4704011,6.47525677 27.574809,5.3103019 27.574809,3.71957672 C27.574809,2.09337068 28.458617,0.922502334 30.3205058,0.922502334 L31.8465476,0.922502334 L31.8465476,2.23529412 L30.2615853,2.23529412 C29.5074025,2.23529412 28.9712257,2.82664177 28.9712257,3.73140367 C28.9712257,4.8076564 29.5839992,5.25708061 30.4619151,5.25708061 L30.8272224,5.25708061 L30.2498012,6.47525677 Z M35.8590359,6.47525677 L35.4230239,5.36352319 L32.8717649,5.36352319 L32.4298609,6.47525677 L30.8802509,6.47525677 L33.2606404,0.922502334 L33.2606404,0.922502334 L35.0636087,0.922502334 L37.4439982,6.47525677 L35.8590359,6.47525677 Z M42.9884203,6.47525677 L41.2856169,6.47525677 L38.9818241,2.89760349 L38.9818241,6.47525677 L37.5971916,6.47525677 L37.5971916,0.922502334 L39.3530234,0.922502334 L41.5978957,4.41145347 L41.5978957,0.922502334 L42.9825282,0.922502334 L42.9825282,6.47525677 L42.9884203,6.47525677 Z" id="Shape" fill-rule="nonzero"></path>
                    <polygon id="Path" points="33.3608053 4.15717398 34.9163073 4.15717398 34.1385563 2.21164021"></polygon>
                    <path d="M22.8788426,2.1643324 L21.2997724,2.1643324 L21.2997724,3.33520075 L22.9024108,3.33520075 C23.1793373,3.33520075 23.5387526,3.12231559 23.5387526,2.74976657 C23.5328605,2.46000622 23.255934,2.1643324 22.8788426,2.1643324 Z" id="Path"></path>
                    <polygon id="Path" points="2.49233851 4.15717398 4.04784056 4.15717398 3.27008953 2.21164021"></polygon>
                </g>
                <g id="Group" transform="translate(9.418868, 10.644258)">
                    <path d="M14.6840736,2.19981326 L13.1630142,2.19981326 L13.1630142,2.19981326 L13.1630142,3.47712418 L14.6782234,3.47712418 C15.0818891,3.47712418 15.3627001,3.21101774 15.3627001,2.83846872 C15.3627001,2.4422658 15.0760389,2.19981326 14.6840736,2.19981326 Z" id="Path"></path>
                    <path d="M20.2944428,2.18207283 L18.7265815,2.18207283 L18.7265815,3.35294118 L20.3178437,3.35294118 C20.5928044,3.35294118 20.9496683,3.14005602 20.9496683,2.767507 C20.9496683,2.47774665 20.6747076,2.18207283 20.2944428,2.18207283 Z" id="Path"></path>
                    <path d="M35.9906059,6.4929972 L33.0654916,6.4929972 L33.0654916,5.28664799 L35.815099,5.28664799 C36.224615,5.28664799 36.4001219,5.06193589 36.4001219,4.81948335 C36.4001219,4.58885777 36.224615,4.35231871 35.815099,4.35231871 L34.5748506,4.35231871 C33.4925583,4.35231871 32.895835,3.69000934 32.895835,2.69063181 C32.895835,1.79769686 33.4457565,0.940242764 35.0487191,0.940242764 L37.6696215,0.940242764 L37.6696215,0.0295673825 L9.47151998,0.0295673825 L8.61153639,1.12947401 L7.78080394,0.0295673825 L0.00585022852,0.0295673825 L0.00585022852,7.44506692 L7.72815188,7.44506692 L8.57058479,6.32150638 L9.40131724,7.44506692 L14.0639494,7.44506692 L14.0639494,5.73015873 L15.1111403,5.73015873 C16.0179257,5.73015873 16.4391422,5.45222533 16.4391422,5.45222533 L16.4391422,7.44506692 L19.5163624,7.44506692 L19.5163624,6.27419857 L20.4582492,7.44506692 L36.0725091,7.44506692 C36.9266424,7.43915344 37.6637712,6.93650794 37.6637712,6.93650794 L37.6637712,5.43448491 C37.4414626,6.05539994 36.8915411,6.4929972 35.9906059,6.4929972 Z M5.42316184,2.18207283 L2.32839095,2.18207283 L2.32839095,3.13414255 L5.34710887,3.13414255 L5.34710887,4.30501089 L2.32839095,4.30501089 L2.32839095,5.29256147 L5.42316184,5.29256147 L5.42316184,6.49891068 L0.941886792,6.49891068 L0.941886792,0.94615624 L5.42316184,0.94615624 L5.42316184,2.18207283 L5.42316184,2.18207283 Z M11.5893027,6.4929972 L9.85763506,6.4929972 L8.56473456,4.78400249 L7.30693543,6.4929972 L5.5986687,6.4929972 L7.78080394,3.7491441 L5.54601664,0.940242764 L7.27768428,0.940242764 L8.60568616,2.67880486 L9.93953826,0.940242764 L11.6010032,0.940242764 L9.39546701,3.71957672 L11.5893027,6.4929972 Z M14.6080206,4.74260815 L13.1630142,4.74260815 L13.1630142,6.49891068 L11.7531091,6.49891068 L11.7531091,0.94615624 L11.7531091,0.94615624 L14.7893777,0.94615624 C16.0354764,0.94615624 16.7609047,1.75630252 16.7609047,2.81481481 C16.7550545,4.08621226 15.8307184,4.74260815 14.6080206,4.74260815 Z M20.9496683,6.4929972 L19.3057541,4.51789605 L18.7265815,4.51789605 L18.7265815,6.4929972 L17.3517778,6.4929972 L17.3517778,0.940242764 L17.3517778,0.940242764 L20.4055971,0.940242764 C21.4176866,0.940242764 22.324472,1.57298475 22.324472,2.7438531 C22.324472,3.74323063 21.5580921,4.38779956 20.8151131,4.44693433 L22.6228337,6.4929972 L20.9496683,6.4929972 L20.9496683,6.4929972 Z M27.3849197,2.18207283 L24.2901488,2.18207283 L24.2901488,3.13414255 L27.2971663,3.13414255 L27.2971663,4.30501089 L24.2901488,4.30501089 L24.2901488,5.29256147 L27.3849197,5.29256147 L27.3849197,6.49891068 L22.9036447,6.49891068 L22.9036447,0.94615624 L27.3849197,0.94615624 L27.3849197,2.18207283 Z M30.9477089,6.4929972 L28.0225946,6.4929972 L28.0225946,5.28664799 L30.772202,5.28664799 C31.181718,5.28664799 31.3572249,5.06193589 31.3572249,4.81948335 C31.3572249,4.58885777 31.181718,4.35231871 30.772202,4.35231871 L29.5319536,4.35231871 C28.4496613,4.35231871 27.852938,3.69000934 27.852938,2.69063181 C27.852938,1.79769686 28.4028595,0.940242764 30.0058221,0.940242764 L32.6793765,0.940242764 L32.1002039,2.18798631 L29.7893636,2.18798631 C29.3447463,2.18798631 29.210191,2.42452537 29.210191,2.64923747 C29.210191,2.87986306 29.3798477,3.13414255 29.7133107,3.13414255 L31.0120614,3.13414255 C32.2172085,3.13414255 32.7378788,3.8260193 32.7378788,4.7307812 C32.7437291,5.70059135 32.1587062,6.4929972 30.9477089,6.4929972 Z" id="Shape" fill-rule="nonzero"></path>
                    <path d="M34.8264104,2.18798631 C34.381793,2.18798631 34.2472378,2.42452537 34.2472378,2.64923747 C34.2472378,2.87986306 34.4168944,3.13414255 34.7503574,3.13414255 L36.0491082,3.13414255 C36.9324927,3.13414255 37.4473128,3.50669157 37.657921,4.05664488 L37.657921,1.05851229 L37.1314004,2.19389978 L34.8264104,2.19389978 L34.8264104,2.18798631 Z" id="Path"></path>
                </g>
            </g>
        </g>
    </g>
</svg>
