<?xml version="1.0" encoding="UTF-8"?>
<svg width="18px" height="14px" viewBox="0 0 18 14" version="1.1" xmlns="http://www.w3.org/2000/svg" xmlns:xlink="http://www.w3.org/1999/xlink">
    <!-- Generator: Sketch 53.1 (72631) - https://sketchapp.com -->
    <g id="Symbols" fill-rule="evenodd">
        <g id="Icons/email">
            <path d="M15.8125,11.1503906 L15.8125,5.02734375 L17.53125,3.57714844 L17.53125,13.75 L0,13.75 L0,3.24414062 L1.71875,4.70507812 L1.71875,11.1611328 L4.99511719,7.03613281 L6.38085938,8.05664062 L3.22265625,12.03125 L14.3193359,12.03125 L11.3222656,8.27148438 L12.7080078,7.25097656 L15.8125,11.1503906 Z M0,0 L17.53125,0 L17.53125,1.78320312 L10.6132812,7.05761719 C10.1692686,7.38704592 9.62858392,7.55175781 8.99121094,7.55175781 C8.36099945,7.55175781 7.82389545,7.38704592 7.37988281,7.05761719 L0,1.45019531 L0,0 Z M9.59277344,5.70410156 L14.9746094,1.71875 L3.01855469,1.71875 L8.40039062,5.70410156 C8.5579435,5.81868547 8.75667198,5.87597656 8.99658203,5.87597656 C9.23649208,5.87597656 9.43522057,5.81868547 9.59277344,5.70410156 Z" id="email"></path>
        </g>
    </g>
</svg>
