<?xml version="1.0" encoding="UTF-8"?>
<svg width="14px" height="22px" viewBox="0 0 14 22" version="1.1" xmlns="http://www.w3.org/2000/svg" xmlns:xlink="http://www.w3.org/1999/xlink">
    <!-- Generator: Sketch 53.1 (72631) - https://sketchapp.com -->
    <g id="Symbols" fill-rule="evenodd">
        <g id="Icons/Cellphone" fill-rule="nonzero">
            <path d="M3.125,22 C1.475,22 0.125,20.68 0.125,19.0666667 L0.125,2.93333333 C0.125,1.32 1.475,0 3.125,0 L10.85,0 C12.5,0 13.85,1.32 13.85,2.93333333 L13.85,19.0666667 C13.85,20.68 12.5,22 10.85,22 L3.125,22 Z M10.875,21.0222222 C11.975,21.0222222 12.875,20.1422222 12.85,19.0666667 L12.85,16.5244444 L1.125,16.5244444 L1.125,19.0666667 C1.125,20.1422222 2.025,21.0222222 3.125,21.0222222 L10.875,21.0222222 Z M1.125,15.5466667 L12.85,15.5466667 L12.85,4.57111111 L1.125,4.57111111 L1.125,15.5466667 Z M3.125,0.977777778 C2.025,0.977777778 1.125,1.85777778 1.125,2.93333333 L1.125,3.59333333 L12.85,3.59333333 L12.85,2.93333333 C12.85,1.85777778 11.95,0.977777778 10.85,0.977777778 L3.125,0.977777778 Z M7,17.3311111 C7.825,17.3311111 8.5,17.9911111 8.5,18.7977778 C8.5,19.6044444 7.825,20.2644444 7,20.2644444 C6.175,20.2644444 5.5,19.6044444 5.5,18.7977778 C5.5,17.9911111 6.175,17.3311111 7,17.3311111 Z M7,19.2866667 C7.275,19.2866667 7.5,19.0666667 7.5,18.7977778 C7.5,18.5288889 7.275,18.3088889 7,18.3088889 C6.725,18.3088889 6.5,18.5288889 6.5,18.7977778 C6.5,19.0666667 6.725,19.2866667 7,19.2866667 Z" id="Cell_Icon"></path>
        </g>
    </g>
</svg>
