<?xml version="1.0" encoding="UTF-8"?>
<svg width="14px" height="18px" viewBox="0 0 14 18" version="1.1" xmlns="http://www.w3.org/2000/svg" xmlns:xlink="http://www.w3.org/1999/xlink">
    <!-- Generator: Sketch 53.1 (72631) - https://sketchapp.com -->
    <g id="Symbols" fill-rule="evenodd">
        <g id="Social/Pinterest" transform="translate(-10.000000, -9.000000)">
            <g id="Pinterest">
                <path d="M17.4375,9 C13.696875,9 10,11.4668022 10,15.4591268 C10,17.9980577 11.44375,19.440632 12.31875,19.440632 C12.6796875,19.440632 12.8875,18.4452557 12.8875,18.1639537 C12.8875,17.8285552 12.0234375,17.1144809 12.0234375,15.7187901 C12.0234375,12.8192157 14.2546875,10.7635472 17.1421875,10.7635472 C19.625,10.7635472 21.4625,12.1592379 21.4625,14.7234138 C21.4625,16.6384313 20.6859375,20.2304415 18.1703125,20.2304415 C17.2625,20.2304415 16.4859375,19.581283 16.4859375,18.6508226 C16.4859375,17.2875898 17.4484375,15.9676342 17.4484375,14.5611242 C17.4484375,12.1736636 14.025,12.6064359 14.025,15.4915847 C14.025,16.0974659 14.1015625,16.768263 14.375,17.3200477 C13.871875,19.4622706 12.84375,22.6539664 12.84375,24.8611052 C12.84375,25.5427216 12.9421875,26.2135187 13.0078125,26.8951351 C13.1317708,27.0321797 13.0697917,27.0177539 13.259375,26.9492316 C15.096875,24.4607909 15.03125,23.973922 15.8625,20.7173104 C16.3109375,21.5612164 17.4703125,22.0156273 18.3890625,22.0156273 C22.2609375,22.0156273 24,18.2829661 24,14.9181614 C24,11.3369705 20.871875,9 17.4375,9 Z" id="Path"></path>
            </g>
        </g>
    </g>
</svg>
