<?xml version="1.0" encoding="UTF-8"?>
<svg width="12px" height="12px" viewBox="0 0 12 12" version="1.1" xmlns="http://www.w3.org/2000/svg" xmlns:xlink="http://www.w3.org/1999/xlink">
    <!-- Generator: Sketch 53.2 (72643) - https://sketchapp.com -->
    <g id="Symbols" stroke="none" stroke-width="1" fill-rule="evenodd">
        <g id="InterfaceIcons/PlusExpand" fill-rule="nonzero">
            <path d="M5,5 L5,1 C5,0.44771525 5.44771525,0 6,0 C6.55228475,0 7,0.44771525 7,1 L7,5 L11,5 C11.5522847,5 12,5.44771525 12,6 C12,6.55228475 11.5522847,7 11,7 L7,7 L7,11 C7,11.5522847 6.55228475,12 6,12 C5.44771525,12 5,11.5522847 5,11 L5,7 L1,7 C0.44771525,7 8.8817842e-16,6.55228475 8.8817842e-16,6 C8.8817842e-16,5.44771525 0.44771525,5 1,5 L5,5 Z" id="Combined-Shape"></path>
        </g>
    </g>
</svg>
