<?xml version="1.0" encoding="UTF-8"?>
<svg width="19px" height="19px" viewBox="0 0 19 19" version="1.1" xmlns="http://www.w3.org/2000/svg" xmlns:xlink="http://www.w3.org/1999/xlink">
    <!-- Generator: Sketch 53.1 (72631) - https://sketchapp.com -->
    <g id="Symbols" stroke="none" stroke-width="1" fill="none" fill-rule="evenodd">
        <g id="Icons/SearchIcon" fill="#4E4E4E">
            <path d="M19,17.6488357 L17.6488357,19 L12.6148521,13.9660164 C11.2038948,15.0660848 9.60164522,15.6161108 7.80805538,15.6161108 C6.77175903,15.6161108 5.77732803,15.4188188 4.82473254,15.0242291 C3.87213705,14.6296393 3.02517677,14.0656634 2.28382631,13.3322845 C1.55044735,12.5989055 0.986471451,11.7559309 0.591881687,10.8033354 C0.197291923,9.85073994 0,8.85232324 0,7.80805538 C0,6.76378752 0.197291923,5.76537082 0.591881687,4.81277533 C0.986471451,3.86017984 1.55044735,3.01720526 2.28382631,2.28382631 C3.02517677,1.55044735 3.87213705,0.986471451 4.82473254,0.591881687 C5.77732803,0.197291923 6.77175903,0 7.80805538,0 C8.85232324,0 9.85073994,0.197291923 10.8033354,0.591881687 C11.7559309,0.986471451 12.5989055,1.55044735 13.3322845,2.28382631 C14.0736349,3.01720526 14.6415965,3.86017984 15.0361863,4.81277533 C15.430776,5.76537082 15.628068,6.76378752 15.628068,7.80805538 C15.628068,9.59367371 15.0740563,11.1959233 13.9660164,12.6148521 L19,17.6488357 Z M3.62303335,11.9811202 C4.77890236,13.1369892 6.17389575,13.714915 7.80805538,13.714915 C9.44221501,13.714915 10.8372084,13.1369892 11.9930774,11.9811202 C13.1409749,10.8332227 13.714915,9.44221501 13.714915,7.80805538 C13.714915,6.18186726 13.1409749,4.78687387 11.9930774,3.62303335 C10.8292369,2.47513586 9.4342435,1.90119572 7.80805538,1.90119572 C6.17389575,1.90119572 4.78288806,2.47513586 3.63499056,3.62303335 C2.47912155,4.77890236 1.90119572,6.17389575 1.90119572,7.80805538 C1.90119572,9.44221501 2.47513586,10.8332227 3.62303335,11.9811202 Z" id="Search"></path>
        </g>
    </g>
</svg>
