<?xml version="1.0" encoding="UTF-8"?>
<svg width="21px" height="14px" viewBox="0 0 21 14" version="1.1" xmlns="http://www.w3.org/2000/svg" xmlns:xlink="http://www.w3.org/1999/xlink">
    <!-- Generator: Sketch 54.1 (76490) - https://sketchapp.com -->
    <g id="Symbols" stroke="none" stroke-width="1" fill="none" fill-rule="evenodd">
        <g id="Buttons/mobileSort" transform="translate(-22.000000, -16.000000)" fill="#4E4E4E">
            <g id="Sort_BTN">
                <g id="Sort" transform="translate(22.000000, 14.000000)">
                    <g id="Icons/MobileSort" transform="translate(0.000000, 2.000000)">
                        <g id="Sorticon" transform="translate(0.500000, 0.000000)">
                            <g id="Filter_Icon" fill-rule="nonzero">
                                <path d="M1,12.5 C0.44771525,12.5 0,12.0522847 0,11.5 C0,10.9477153 0.44771525,10.5 1,10.5 L6.8125,10.5 C7.36478475,10.5 7.8125,10.9477153 7.8125,11.5 C7.8125,12.0522847 7.36478475,12.5 6.8125,12.5 L1,12.5 Z M1,7.5 C0.44771525,7.5 -1.12798659e-13,7.05228475 -1.12798659e-13,6.5 C-1.12798659e-13,5.94771525 0.44771525,5.5 1,5.5 L8.8125,5.5 C9.36478475,5.5 9.8125,5.94771525 9.8125,6.5 C9.8125,7.05228475 9.36478475,7.5 8.8125,7.5 L1,7.5 Z M1,2.5 C0.44771525,2.5 9.76996262e-15,2.05228475 9.76996262e-15,1.5 C9.76996262e-15,0.94771525 0.44771525,0.5 1,0.5 L12.8125,0.5 C13.3647847,0.5 13.8125,0.94771525 13.8125,1.5 C13.8125,2.05228475 13.3647847,2.5 12.8125,2.5 L1,2.5 Z M14.5,10.0857864 L14.5,5.5 C14.5,4.94771525 14.9477153,4.5 15.5,4.5 C16.0522847,4.5 16.5,4.94771525 16.5,5.5 L16.5,10.0857864 L18.2928932,8.29289322 C18.6834175,7.90236893 19.3165825,7.90236893 19.7071068,8.29289322 C20.0976311,8.68341751 20.0976311,9.31658249 19.7071068,9.70710678 L16.2071068,13.2071068 C15.8165825,13.5976311 15.1834175,13.5976311 14.7928932,13.2071068 L11.2928932,9.70710678 C10.9023689,9.31658249 10.9023689,8.68341751 11.2928932,8.29289322 C11.6834175,7.90236893 12.3165825,7.90236893 12.7071068,8.29289322 L14.5,10.0857864 Z" id="Combined-Shape"></path>
                            </g>
                        </g>
                    </g>
                </g>
            </g>
        </g>
    </g>
</svg>
