<?xml version="1.0" encoding="UTF-8"?>
<svg width="17px" height="17px" viewBox="0 0 17 17" version="1.1" xmlns="http://www.w3.org/2000/svg" xmlns:xlink="http://www.w3.org/1999/xlink">
    <!-- Generator: Sketch 53.1 (72631) - https://sketchapp.com -->
    <g id="Symbols" fill-rule="evenodd">
        <g id="Icons/GiftCertificate" fill-rule="nonzero">
            <path d="M7.5824189,1.5 L1.5,1.5 L1.5,7.49887214 L9.0888527,15.2905248 L15.2897174,9.16882011 L7.5824189,1.5 Z M16.3512749,9.52603004 L9.43317147,16.3558173 C9.2357189,16.5507492 8.91730501,16.5476272 8.72371251,16.3488613 L0.641815959,8.05098894 C0.550885037,7.95762803 0.5,7.83245299 0.5,7.70212766 L0.5,1 C0.5,0.723857625 0.723857625,0.5 1,0.5 L7.7887931,0.5 C7.92096782,0.5 8.0477654,0.552335498 8.14146063,0.64556296 L16.3526675,8.81577573 C16.5496544,9.01177915 16.5490289,9.33080059 16.3512749,9.52603004 Z M5.49952879,3.5 C6.62739009,3.5 7.53868198,4.39909088 7.49905758,5.5 C7.49905758,6.59499243 6.60672778,7.5 5.49952879,7.5 C4.40472483,7.5 3.5,6.60738825 3.5,5.5 C3.5,4.40500757 4.3923298,3.5 5.49952879,3.5 Z M5.49952879,4.5 C4.94779703,4.5 4.5,4.9541591 4.5,5.5 C4.5,6.0520638 4.95401486,6.5 5.49952879,6.5 C6.05126055,6.5 6.49905758,6.0458409 6.49937595,5.48215983 C6.51870566,4.94075789 6.07196652,4.5 5.49952879,4.5 Z" id="Combined-Shape"></path>
        </g>
    </g>
</svg>
