<?xml version="1.0" encoding="UTF-8"?>
<svg width="17px" height="15px" viewBox="0 0 17 15" version="1.1" xmlns="http://www.w3.org/2000/svg" xmlns:xlink="http://www.w3.org/1999/xlink">
    <!-- Generator: Sketch 53.1 (72631) - https://sketchapp.com -->
    <g id="Symbols" fill-rule="evenodd">
        <g id="Social/Twitter" transform="translate(-9.000000, -9.000000)">
            <g id="Twitter" transform="translate(0.500000, 0.000000)">
                <g id="Icon" transform="translate(8.000000, 9.000000)">
                    <path d="M15.4549702,2.65579303 C16.2088003,2.19797525 16.7177863,1.54218223 16.9843406,0.688413948 C16.2944354,1.10911136 15.5586972,1.39370079 14.7759201,1.55455568 C14.0872209,0.799775028 13.240519,0.428571429 12.2346082,0.428571429 C11.2733241,0.428571429 10.4531569,0.775028121 9.77410683,1.46794151 C9.09626283,2.16085489 8.7561347,3.01462317 8.7561347,3.99212598 C8.7561347,4.26434196 8.78508178,4.53655793 8.84297593,4.8087739 C7.42095089,4.73453318 6.08817934,4.37570304 4.842249,3.70753656 C3.59631867,3.05174353 2.53975045,2.17322835 1.67133821,1.08436445 C1.35533265,1.6287964 1.19732987,2.23509561 1.19732987,2.87851519 C1.19732987,3.49718785 1.33724073,4.05399325 1.61706245,4.58605174 C1.89688417,5.10573678 2.27440227,5.5264342 2.74720448,5.84814398 C2.18756104,5.82339708 1.66410144,5.67491564 1.17561956,5.40269966 L1.17561956,5.43982002 C1.17561956,6.30596175 1.43976162,7.06074241 1.9668396,7.71653543 C2.49512371,8.35995501 3.16090642,8.78065242 3.96418774,8.94150731 C3.66265572,9.02812148 3.3575053,9.06524184 3.04873651,9.06524184 C2.84851924,9.06524184 2.62900393,9.05286839 2.39260282,9.01574803 C2.61453039,9.72103487 3.02340782,10.3149606 3.62044123,10.7727784 C4.21626852,11.2305962 4.89049413,11.4656918 5.64432419,11.4904387 C4.38030194,12.5050619 2.94139111,13.0123735 1.32638558,13.0123735 C1.01761678,13.0123735 0.73779506,13 0.485714286,12.9628796 C2.10192595,14.0393701 3.88217103,14.5714286 5.82765566,14.5714286 C7.06273084,14.5714286 8.22181995,14.3734533 9.30612912,13.9651294 C10.3892322,13.5691789 11.3155385,13.0247469 12.0838421,12.3565804 C12.8521458,11.6760405 13.5143101,10.9088864 14.0715413,10.0303712 C14.6275663,9.15185602 15.0412683,8.23622047 15.3150593,7.28346457 C15.5876443,6.33070866 15.7239368,5.37795276 15.7239368,4.4128234 C15.7239368,4.21484814 15.7203184,4.05399325 15.7130816,3.95500562 C16.3957501,3.44769404 16.9771039,2.82902137 17.4571429,2.11136108 C16.790154,2.39595051 16.121959,2.58155231 15.4549702,2.65579303 L15.4549702,2.65579303 L15.4549702,2.65579303 Z" id="fa-twitter"></path>
                </g>
            </g>
        </g>
    </g>
</svg>
