<?xml version="1.0" encoding="UTF-8"?>
<svg width="15px" height="17px" viewBox="0 0 15 17" version="1.1" xmlns="http://www.w3.org/2000/svg" xmlns:xlink="http://www.w3.org/1999/xlink">
    <!-- Generator: Sketch 53.1 (72631) - https://sketchapp.com -->
    <g id="Symbols" stroke="none" stroke-width="1" fill-rule="evenodd">
        <g id="Icons/User">
            <path d="M10.3790614,7.5631769 C9.60890108,8.48977599 8.64922356,8.95306859 7.5,8.95306859 C6.35077644,8.95306859 5.38959472,8.4882718 4.61642599,7.55866426 C3.84325727,6.62905672 3.4566787,5.47232942 3.4566787,4.08844765 C3.4566787,3.36642238 3.6401907,2.68953384 4.00722022,2.05776173 C4.37424973,1.42598962 4.86913046,0.925092103 5.49187726,0.555054152 C6.11462405,0.1850162 6.78399161,1.77635684e-14 7.5,1.77635684e-14 C8.21600839,1.77635684e-14 8.88537595,0.1850162 9.50812274,0.555054152 C10.1308695,0.925092103 10.6257503,1.42598962 10.9927798,2.05776173 C11.3598093,2.68953384 11.5433213,3.36642238 11.5433213,4.08844765 C11.5433213,5.47232942 11.1552385,6.63056092 10.3790614,7.5631769 Z M9.34115523,2.21119134 C8.81167004,1.66967238 8.19795776,1.39891697 7.5,1.39891697 C6.80204224,1.39891697 6.18832996,1.66816819 5.65884477,2.2066787 C5.12935957,2.74518921 4.86462094,3.37243926 4.86462094,4.08844765 C4.86462094,5.07521552 5.1158218,5.89951534 5.61823105,6.56137184 C6.1206403,7.22322834 6.74789034,7.55415162 7.5,7.55415162 C8.25210966,7.55415162 8.8793597,7.22322834 9.38176895,6.56137184 C9.8841782,5.89951534 10.1353791,5.07521552 10.1353791,4.08844765 C10.1353791,3.37243926 9.87064043,2.74669341 9.34115523,2.21119134 Z M1.44404332,16.1732852 L0,16.1732852 L0.126353791,14.6931408 C0.282792599,13.212989 0.994277662,12.0788246 2.26083032,11.2906137 C3.52738299,10.5024028 5.27375542,10.1083032 7.5,10.1083032 C9.72624458,10.1083032 11.472617,10.5008986 12.7391697,11.2861011 C14.0057223,12.0713036 14.7172074,13.2039637 14.8736462,14.6841155 L15,16.1732852 L13.5559567,16.1732852 L13.4296029,14.8194946 C13.375451,14.3020431 13.2145019,13.8432631 12.9467509,13.4431408 C12.6789999,13.0430185 12.3525892,12.7256329 11.967509,12.4909747 C11.5824289,12.2563165 11.1296657,12.0637793 10.6092058,11.9133574 C10.0887459,11.7629355 9.58032739,11.6606501 9.08393502,11.6064982 C8.58754264,11.5523463 8.05956958,11.5252708 7.5,11.5252708 C6.94043042,11.5252708 6.41245736,11.5523463 5.91606498,11.6064982 C5.41967261,11.6606501 4.91125411,11.7629355 4.39079422,11.9133574 C3.87033434,12.0637793 3.41757112,12.2578207 3.03249097,12.4954874 C2.64741083,12.733154 2.32100014,13.0505395 2.0532491,13.4476534 C1.78549806,13.8447673 1.62454901,14.3050515 1.57039711,14.8285199 L1.44404332,16.1732852 Z" id="user"></path>
        </g>
    </g>
</svg>
