<?xml version="1.0" encoding="UTF-8"?>
<svg width="17px" height="13px" viewBox="0 0 17 13" version="1.1" xmlns="http://www.w3.org/2000/svg" xmlns:xlink="http://www.w3.org/1999/xlink">
    <!-- Generator: Sketch 53.1 (72631) - https://sketchapp.com -->
    <g id="Symbols" fill-rule="evenodd">
        <g id="Social/Youtube" transform="translate(-8.000000, -10.000000)" fill-rule="nonzero">
            <g id="youtube">
                <path d="M16.4947319,10 C16.4947319,10 11.1815355,10.0000054 9.84799401,10.3786495 C9.13396987,10.5966531 8.54602642,11.2391191 8.34651941,12.0308243 C8.0000079,13.4880159 8,16.50574 8,16.50574 C8,16.50574 8.0000079,19.5349199 8.34651941,20.9691761 C8.54602642,21.7608705 9.12346926,22.3918626 9.84799401,22.6098715 C11.1920361,22.9999853 16.4947319,23 16.4947319,23 C16.4947319,23 21.8184616,22.9999954 23.1519755,22.6213511 C23.8765054,22.4033468 24.4539365,21.7838262 24.6429442,20.9806557 C24.9999593,19.5349236 24.9999694,16.5172197 24.9999694,16.5172197 C24.9999694,16.5172197 25.0104615,13.4880159 24.6429442,12.0308243 C24.4539365,11.2391191 23.8765054,10.608142 23.1519755,10.4016088 C21.8184616,10.0000184 16.4947319,10 16.4947319,10 Z M15,14 L20,17.0061888 L15,20 L15,14 Z" id="path4156"></path>
            </g>
        </g>
    </g>
</svg>
